# xmcd
#
# Track frame offsets:
#	150
#	1583
#	29123
#	43728
#	68342
#	85259
#	113871
#	156325
#	186170
#	221109
#	243256
#
# Disc length: 3621 seconds
#
# Revision: 1
# Processed by: cddbd v1.5.2PL0 Copyright (c) Steve Scherf et al.
# Submitted via: audiograbber 1.83.01
#
DISCID=8e0e230b
DTITLE=Grateful Dead - 73-07-28A Grand Prix Racecourse, Watkins Glen NY
DYEAR=1900
DGENRE=
TTITLE0=Bill Graham Intro
TTITLE1=Bertha
TTITLE2=BIODTL
TTITLE3=Brown Eyed Women
TTITLE4=Mexicali Blues
TTITLE5=Box Of Rain
TTITLE6=Here Comes Sunshine
TTITLE7=Looks Like Rain
TTITLE8=Row Jimmy
TTITLE9=Jack Straw
TTITLE10=Deal
EXTD=
EXTT0=
EXTT1=
EXTT2=
EXTT3=
EXTT4=
EXTT5=
EXTT6=
EXTT7=
EXTT8=
EXTT9=
EXTT10=
PLAYORDER=
